<?xml version="1.0" encoding="UTF-8" standalone="no"?>
<svg
   xmlns:dc="http://purl.org/dc/elements/1.1/"
   xmlns:cc="http://creativecommons.org/ns#"
   xmlns:rdf="http://www.w3.org/1999/02/22-rdf-syntax-ns#"
   xmlns:svg="http://www.w3.org/2000/svg"
   xmlns="http://www.w3.org/2000/svg"
   xmlns:sodipodi="http://sodipodi.sourceforge.net/DTD/sodipodi-0.dtd"
   xmlns:inkscape="http://www.inkscape.org/namespaces/inkscape"
   width="90"
   height="48"
   viewBox="0 0 90 48"
   version="1.1"
   id="svg8"
   inkscape:version="1.0.2 (e86c870879, 2021-01-15)"
   sodipodi:docname="logo-gold-on-black.svg"
   inkscape:export-filename="../900x480/logo-gold-on-black.png"
   inkscape:export-xdpi="960"
   inkscape:export-ydpi="960">
  <defs
     id="defs2" />
  <sodipodi:namedview
     id="base"
     pagecolor="#ffffff"
     bordercolor="#666666"
     borderopacity="1.0"
     inkscape:pageopacity="0.0"
     inkscape:pageshadow="2"
     inkscape:cx="45"
     inkscape:cy="24"
     inkscape:document-units="px"
     inkscape:current-layer="layer1"
     inkscape:document-rotation="0"
     showgrid="false"
     units="px"
     inkscape:zoom="14.455556"
     inkscape:window-width="3759"
     inkscape:window-height="2131"
     inkscape:window-x="81"
     inkscape:window-y="0"
     inkscape:window-maximized="1" />
  <metadata
     id="metadata5">
    <rdf:RDF>
      <cc:Work
         rdf:about="">
        <dc:format>image/svg+xml</dc:format>
        <dc:type
           rdf:resource="http://purl.org/dc/dcmitype/StillImage" />
        <dc:title />
      </cc:Work>
    </rdf:RDF>
  </metadata>
  <g
     inkscape:label="Layer 1"
     inkscape:groupmode="layer"
     id="layer1">
    <path
       style="fill:#d4aa00"
       d="M 25.00008,6.6493898 C 24.99966,2.72534 24.99508,2.82153 25.18753,2.54387 25.3195,2.35332 25.61252,2.15123 25.87404,2.0704 26.06391,2.0118 26.18967,2.003 26.86244,2.003 h 0.77084 l 0.20017,0.12942 c 1.56292,1.01054 3.16807,1.72124 4.79902,2.12483 1.16302,0.28781 2.13601,0.40355 3.38432,0.40254 2.81878,-0.003 5.34981,-0.77127 7.98315,-2.42558 L 44.37284,2 45.20335,2.011 c 0.77462,0.0104 0.84298,0.0164 1.01554,0.0887 0.40964,0.17163 0.68073,0.46847 0.74696,0.81797 0.0216,0.11377 0.0342,1.49734 0.0342,3.7558098 V 10.24917 l -0.0854,0.34617 c -0.0996,0.40407 -0.2122,0.65329 -0.59574,1.31847 -0.58169,1.00889 -1.16216,1.77437 -1.92725,2.54155 -0.57558,0.57714 -0.97477,0.90143 -1.94776,1.58225 -1.09114,0.76354 -1.3723,0.99576 -1.69504,1.4 -0.22403,0.28061 -0.37796,0.55652 -0.40725,0.72998 -0.0376,0.22281 0.0208,0.33181 0.49936,0.93125 0.38853,0.48672 0.53393,0.91068 0.41225,1.20208 -0.0765,0.18318 -0.35729,0.45114 -0.67708,0.64605 -0.53327,0.32505 -0.91721,0.59146 -1.03685,0.71952 -0.0669,0.0716 -0.15418,0.21817 -0.19401,0.32578 -0.0637,0.17228 -0.0685,0.22505 -0.0404,0.44101 0.0405,0.3111 0.0582,0.36883 0.27279,0.8961 0.25029,0.61481 0.30605,0.778 0.35126,1.02834 0.12271,0.67947 -0.18435,11.52813 -0.5737,20.26848 -0.0274,0.61568 -0.05,1.17665 -0.05,1.24662 l -1.6e-4,0.12721 h -3.30513 -3.30513 l -1.8e-4,-0.0764 h -10e-5 c -9e-5,-0.0419 -0.0226,-0.58769 -0.05,-1.21271 -0.29352,-6.68807 -0.53346,-14.01418 -0.59173,-18.06755 -0.0239,-1.66791 -0.0211,-2.11888 0.0147,-2.30668 0.0245,-0.12841 0.15468,-0.50823 0.28935,-0.84405 0.28518,-0.7111 0.33138,-0.86667 0.3411,-1.14887 0.0104,-0.30081 -0.0948,-0.55226 -0.31292,-0.74857 -0.0937,-0.0843 -0.40346,-0.29823 -0.68828,-0.47537 -0.8275,-0.51463 -1.03306,-0.74935 -0.98848,-1.12891 0.038,-0.32361 0.16156,-0.55519 0.52974,-0.99298 0.33997,-0.40424 0.45612,-0.63881 0.41874,-0.84572 -0.0292,-0.16153 -0.23535,-0.50964 -0.46821,-0.79058 -0.25212,-0.30415 -0.64095,-0.62303 -1.47771,-1.21185 -1.24888,-0.87882 -1.6424,-1.20113 -2.28728,-1.87335 -0.64608,-0.67346 -1.20064,-1.42113 -1.72591,-2.32682 -0.37094,-0.6396 -0.51634,-0.95933 -0.61276,-1.3474 l -0.0842,-0.33921 -3.5e-4,-3.6138002"
       id="path1041"
       sodipodi:nodetypes="cssscsssscsssscsssssssssssssssccccccssssssssssssssscc" />
    <path
       d="m 11.075,12.575 q 0.2125,0.4 0.3875,0.8375 0.1875,0.425 0.3625,0.8625 Q 12,13.8125 12.1875,13.3875 12.375,12.95 12.5875,12.55 L 17.925,2.5375 q 0.1,-0.1875 0.2125,-0.3 Q 18.25,2.125 18.375,2.075 18.5125,2.025 18.675,2.0125 18.8375,2 19.0625,2 H 21.6 V 20.075 H 18.6375 V 8.4 q 0,-0.325 0.0125,-0.7125002 0.025,-0.3875 0.0625,-0.7875 L 13.25,17.15 q -0.3875,0.7375 -1.1875,0.7375 h -0.475 q -0.8,0 -1.1875,-0.7375 L 4.875,6.8624998 q 0.0375,0.4125 0.0625,0.8125 Q 4.9625,8.0625 4.9625,8.4 V 20.075 H 2 V 2 H 4.5375 Q 4.7625,2 4.925,2.0125 5.0875,2.025 5.2125,2.075 5.35,2.125 5.45,2.2375 5.5625,2.35 5.6625,2.5375 Z"
       style="fill:#ffdd55"
       id="path1073" />
    <path
       d="M 18.3625,39.6375 V 46 H 15 V 27.925 h 5.875 q 1.8125,0 3.1375,0.425 1.325,0.425 2.1875,1.1875 0.8625,0.7625 1.275,1.825 0.425,1.0625 0.425,2.325 0,1.3125 -0.4375,2.4125 -0.4375,1.0875 -1.3125,1.875 -0.875,0.7875 -2.2,1.225 -1.3125,0.4375 -3.075,0.4375 z m 0,-2.625 h 2.5125 q 0.925,0 1.6125,-0.225 0.6875,-0.2375 1.1375,-0.6625 0.4625,-0.4375 0.6875,-1.05 0.225,-0.625 0.225,-1.3875 0,-0.725 -0.225,-1.3125 -0.225,-0.5875 -0.675,-1 -0.45,-0.4125 -1.1375,-0.625 -0.6875,-0.225 -1.625,-0.225 h -2.5125 z"
       style="fill:#ffdd55"
       id="path1070" />
    <path
       d="M 56.4,27.925 V 30.6 h -8.025 v 5.0125 H 54.7 V 38.2 h -6.325 v 5.1125 H 56.4 V 46 H 45 V 27.925 Z"
       style="fill:#ffdd55"
       id="path1063" />
    <path
       d="m 71.4625,41.7375 q 0.275,0 0.4875,0.2125 l 1.325,1.4375 q -1.1,1.3625 -2.7125,2.0875 -1.6,0.725 -3.85,0.725 -2.0125,0 -3.625,-0.6875 Q 61.4875,44.825 60.35,43.6 59.2125,42.375 58.6,40.675 58,38.975 58,36.9625 q 0,-2.0375 0.65,-3.725 0.65,-1.7 1.825,-2.925 1.1875,-1.225 2.825,-1.9 1.6375,-0.6875 3.625,-0.6875 1.975,0 3.5,0.65 1.5375,0.65 2.6125,1.7 l -1.125,1.5625 q -0.1,0.15 -0.2625,0.2625 -0.15,0.1125 -0.425,0.1125 -0.1875,0 -0.3875,-0.1 Q 70.6375,31.8 70.4,31.65 70.1625,31.4875 69.85,31.3 69.5375,31.1125 69.125,30.9625 68.7125,30.8 68.1625,30.7 q -0.5375,-0.1125 -1.25,-0.1125 -1.2125,0 -2.225,0.4375 -1,0.425 -1.725,1.25 -0.725,0.8125 -1.125,2 -0.4,1.175 -0.4,2.6875 0,1.525 0.425,2.7125 0.4375,1.1875 1.175,2 0.7375,0.8125 1.7375,1.25 1,0.425 2.15,0.425 0.6875,0 1.2375,-0.075 0.5625,-0.075 1.025,-0.2375 0.475,-0.1625 0.8875,-0.4125 0.425,-0.2625 0.8375,-0.6375 0.125,-0.1125 0.2625,-0.175 0.1375,-0.075 0.2875,-0.075 z"
       style="fill:#ffdd55"
       id="path1065" />
    <path
       d="M 87.4,27.925 V 30.6 h -8.025 v 5.0125 H 85.7 V 38.2 h -6.325 v 5.1125 H 87.4 V 46 H 76 V 27.925 Z"
       style="fill:#ffdd55"
       id="path1067" />
  </g>
</svg>
